# xmcd CD database file
#
# Track frame offsets:
#	150
#	20024
#	37886
#	54227
#	85392
#	123247
#	142409
#	166486
#	197633
#
# Disc length: 2976 seconds
#
# Revision: 2
# Processed by: cddbd v1.4b41PL1 Copyright (c) Steve Scherf et al.
# Submitted via: Feurio! 1.52 - http://www.feurio.com
#
DISCID=790b9e09
DTITLE=Hansi Biebl - Unter den Wolken - Biebl 3
DYEAR=1900
DGENRE=
TTITLE0=Jeder andere würde geh'n
TTITLE1=Eierkuchenhaus
TTITLE2=Halbes Herz
TTITLE3=Verdammt
TTITLE4=Herz auf Samt
TTITLE5=Schattenmann
TTITLE6=Die letzte Flasche
TTITLE7=Unter den Wolken
TTITLE8=Freiheit
EXTD=
EXTT0=
EXTT1=
EXTT2=
EXTT3=
EXTT4=
EXTT5=
EXTT6=
EXTT7=
EXTT8=
PLAYORDER=
